<svg width="287" height="287" viewBox="0 0 287 287" fill="none" xmlns="http://www.w3.org/2000/svg">
<path d="M110.114 112.535C110.114 108.881 110.226 105.024 110.495 102.042C111.033 96.2123 113.432 92.849 119.329 92.8714C123.881 92.8714 174.846 92.9387 178.859 92.8714C184.51 92.7817 186.079 98.2078 186.415 100.831C186.752 103.455 187.694 113.163 187.335 113.163C185.989 113.163 109.912 112.446 110.114 112.535Z" fill="#B9A074"/>
<path d="M95.3827 109.71C95.3827 109.71 92.7593 104.643 90.8983 103.522C89.0373 102.401 44.2832 99.1047 31.9287 118.051C19.5743 136.998 16.8164 171.527 15.6729 186.752C14.5294 201.976 14.5294 212.021 14.5294 212.021L165.855 218.613L270.61 212.582C270.61 212.582 269.623 165.608 269.376 153.276C269.13 140.921 268.816 120.428 262.896 115.271C256.977 110.114 253.367 111.257 243.076 110.966C232.784 110.674 95.4051 109.71 95.4051 109.71H95.3827Z" fill="#F4DAAD"/>
<path d="M14.5518 210.833L270.811 211.797C270.811 211.797 271.708 245.766 271.708 248.928C271.708 252.089 270.811 255.721 266.349 255.968C261.888 256.215 60.7857 257.672 60.7857 257.672L15.5608 255.497C15.5608 255.497 10.3365 253.547 9.10328 249.197C7.87008 244.847 10.6055 222.021 10.6055 222.021L14.5742 210.855L14.5518 210.833Z" fill="#FFB803"/>
<path d="M9.66383 230.026C8.96875 235.43 8.11672 247.672 9.08086 250.52C10.3141 254.197 15.5384 255.834 15.5384 255.834L60.7633 257.672C60.7633 257.672 261.887 256.439 266.327 256.237C270.789 256.035 271.686 252.964 271.686 250.295C271.686 248.748 271.394 238.546 271.148 230.205L9.66383 230.026Z" fill="#FF6110"/>
<path d="M8.76695 240.901C8.76695 243.277 8.49789 248.367 8.63242 249.443C9.34992 255.52 16.0989 255.946 16.0989 255.946L60.7857 257.672C60.7857 257.672 261.932 256.82 266.372 256.506C270.834 256.17 271.708 253.524 271.708 249.286C271.708 248.591 271.619 243.434 271.596 240.901H8.76695Z" fill="#464C4F"/>
<path d="M8.96875 237.268C8.96875 237.268 15.8747 237.874 17.0855 235.923C19.3725 232.201 21.1438 213.344 19.3501 211.393C18.1841 210.138 14.193 210.676 14.193 210.676C14.193 210.676 10.9419 217.447 9.82078 224.308C8.61 231.663 8.99117 237.246 8.99117 237.246L8.96875 237.268Z" fill="#F1EDEC"/>
<path d="M78.925 257.627C78.925 257.627 80.0461 245.228 75.4048 236.125C70.7634 227.021 59.7319 220.474 48.2295 220.317C27.5116 220.048 19.4622 235.34 17.9599 243.591C16.6595 250.721 17.5563 256.013 17.5563 256.013C17.5563 256.013 25.3143 256.304 32.9153 256.798C38.0723 257.134 42.0186 257.762 47.8483 257.762C67.445 257.762 78.925 257.627 78.925 257.627ZM186.102 257.089C186.102 257.089 185.362 245.295 188.859 238.21C193.725 228.412 203.03 220.631 217.335 220.631C231.64 220.631 240.968 228.681 244.309 234.578C250.049 244.712 249.129 256.73 249.129 256.73L186.102 257.089Z" fill="#84765F"/>
<path d="M21.6371 253.008C21.7941 263.143 29.8884 277.74 47.4895 277.852C65.0907 277.964 74.2388 264.488 73.6783 250.654C73.1177 236.82 62.1983 226.708 46.4805 227.134C31.7718 227.56 21.4129 238.95 21.6371 253.008Z" fill="#4E433D"/>
<path d="M33.9019 252.156C33.9916 257.493 38.3414 265.206 47.781 265.251C57.2206 265.296 61.8171 258.614 61.5256 251.327C61.2341 244.04 55.1802 238.412 47.2429 238.524C39.3504 238.636 33.7673 244.757 33.9019 252.156Z" fill="#B2B1B2"/>
<path d="M192.088 253.188C192.245 263.255 200.16 277.74 217.38 277.852C234.6 277.964 243.546 264.578 243.008 250.878C242.448 236.932 231.775 227.111 216.394 227.537C201.999 227.941 191.864 239.264 192.088 253.188Z" fill="#4E433D"/>
<path d="M204.196 252.986C204.286 258.322 208.636 266.036 218.075 266.08C227.515 266.125 232.111 259.444 231.82 252.156C231.506 244.757 225.474 239.241 217.537 239.354C209.6 239.466 204.061 245.587 204.196 252.986Z" fill="#B2B1B2"/>
<path d="M122.827 198.972C122.827 198.972 248.659 199.241 252.47 198.972C256.282 198.703 261.282 192.604 261.506 183.837C261.731 175.07 260.565 138.164 260.071 133.926C259.578 129.688 257.246 121.168 245.542 121.19C236.259 121.19 55.0905 120.136 50.3147 120.136C45.5388 120.136 38.4087 122.962 35.2248 130.652C32.0409 138.343 26.2112 152.491 24.821 168.433C23.4309 184.375 23.4981 191.46 24.552 195.721C25.6058 199.981 26.682 204.757 36.5028 204.757H82.4452L83.0058 257.47L122.782 257.313V199.017L122.827 198.972Z" fill="#454C52"/>
<path d="M262.986 214.129L247.784 214.039C246.259 214.039 245.004 212.784 245.026 211.236C245.026 209.712 246.282 208.479 247.807 208.479L263.009 208.568C264.533 208.568 265.789 209.824 265.766 211.371C265.766 212.896 264.511 214.129 262.986 214.129ZM262.807 224.129L247.605 224.039C246.08 224.039 244.824 222.784 244.847 221.237C244.847 219.712 246.103 218.479 247.627 218.479L262.829 218.568C264.354 218.568 265.61 219.824 265.587 221.371C265.587 222.896 264.331 224.129 262.807 224.129ZM262.695 234.196L247.493 234.107C245.968 234.107 244.712 232.851 244.735 231.304C244.735 229.779 245.99 228.546 247.515 228.546L262.717 228.636C264.242 228.636 265.497 229.891 265.475 231.439C265.475 232.963 264.219 234.196 262.695 234.196Z" fill="#8E7F66"/>
<path d="M81.8398 133.433C81.8398 133.433 48.4761 133.433 45.7855 133.634C43.0948 133.836 40.4939 137.11 38.162 145.159C35.718 153.612 31.3682 167.447 32.3996 187.424C32.6014 191.124 36.0992 192.155 38.9916 192.155H82.0416L81.8398 133.41V133.433Z" fill="#AFE3FB"/>
<path d="M45.5837 175.249L44.9559 201.191C44.9559 201.191 55.8753 203.254 57.7363 200.362C59.5973 197.469 59.5973 179.375 58.1399 177.088C55.2475 172.559 45.5837 175.227 45.5837 175.227V175.249Z" fill="#858585"/>
<path d="M89.6651 137.289H116.033V240.138H89.8669L89.6651 137.289ZM124.262 185.541V133.859H186.214V185.339L124.262 185.541ZM194.173 134.06V185.137H245.138C250.318 185.137 252.179 181.684 252.739 175.518C253.3 169.33 252.65 145.966 252.156 141.684C251.596 136.953 248.86 134.576 243.995 134.329C238.905 134.083 194.353 133.859 194.173 134.06Z" fill="#AFE3FB"/>
<path d="M268.816 210.878C268.95 209.779 275.587 208.972 276.977 212.021C278.368 215.071 278.659 235.407 276.574 236.304C274.489 237.201 269.062 236.506 269.062 236.506C269.062 236.506 268.659 212.111 268.793 210.878H268.816Z" fill="#FF2A23"/>
<path d="M61.1445 192.178L69.9338 157.402L81.952 157.469L82.0641 192.178H61.1445ZM241.932 173.456H194.173V185.137H245.138C250.318 185.137 252.179 181.684 252.739 175.518C253.143 171.101 252.919 157.872 252.582 149.128L241.932 173.456ZM124.262 173.456V185.541L186.214 185.339V173.456H124.262Z" fill="#96C8EC"/>
</svg>
